<!--?xml version="1.0" standalone="no"?-->
              <svg id="sw-js-blob-svg" viewBox="0 0 100 100" xmlns="http://www.w3.org/2000/svg" version="1.1">
                    <defs> 
                        <linearGradient id="sw-gradient" x1="0" x2="1" y1="1" y2="0">
                            <stop id="stop1" stop-color="rgba(248, 117, 55, 1)" offset="0%"></stop>
                            <stop id="stop2" stop-color="rgba(251, 168, 31, 1)" offset="100%"></stop>
                        </linearGradient>
                    </defs>
                <path fill="url(#sw-gradient)" d="M29.4,-31C37.5,-28.1,43.3,-18.4,45.1,-8C46.9,2.5,44.8,13.6,39.4,22.7C34.1,31.9,25.5,39.1,16.9,39C8.3,39,-0.3,31.7,-6.9,26.2C-13.5,20.7,-18.1,16.9,-22.9,11.7C-27.7,6.5,-32.7,-0.1,-31.8,-5.7C-30.9,-11.2,-24,-15.8,-17.7,-19C-11.4,-22.2,-5.7,-24,2.4,-26.9C10.6,-29.8,21.2,-33.8,29.4,-31Z" width="100%" height="100%" transform="translate(50 50)" stroke-width="0" style="transition: all 0.3s ease 0s;"></path>
              </svg>